<?xml version="1.0" encoding="UTF-8" standalone="no"?>
<!-- Created with Inkscape (http://www.inkscape.org/) -->

<svg
   xmlns:dc="http://purl.org/dc/elements/1.1/"
   xmlns:cc="http://creativecommons.org/ns#"
   xmlns:rdf="http://www.w3.org/1999/02/22-rdf-syntax-ns#"
   xmlns:svg="http://www.w3.org/2000/svg"
   xmlns="http://www.w3.org/2000/svg"
   xmlns:sodipodi="http://sodipodi.sourceforge.net/DTD/sodipodi-0.dtd"
   xmlns:inkscape="http://www.inkscape.org/namespaces/inkscape"
   width="733.513mm"
   height="136.94759mm"
   viewBox="0 0 733.51303 136.94759"
   version="1.1"
   id="svg8"
   inkscape:version="0.92.5 (2060ec1f9f, 2020-04-08)"
   sodipodi:docname="phmd_logo.svg">
  <defs
     id="defs2">
    <clipPath
       id="clip0_429_11163">
      <rect
         id="rect1346"
         height="24"
         width="24"
         x="0"
         y="0"
         style="fill:#ffffff" />
    </clipPath>
  </defs>
  <sodipodi:namedview
     id="base"
     pagecolor="#ffffff"
     bordercolor="#666666"
     borderopacity="1.0"
     inkscape:pageopacity="0.0"
     inkscape:pageshadow="2"
     inkscape:zoom="0.35"
     inkscape:cx="1062.6968"
     inkscape:cy="456.15674"
     inkscape:document-units="mm"
     inkscape:current-layer="g1306"
     showgrid="false"
     inkscape:window-width="1848"
     inkscape:window-height="1016"
     inkscape:window-x="72"
     inkscape:window-y="27"
     inkscape:window-maximized="1"
     fit-margin-top="0"
     fit-margin-left="0"
     fit-margin-right="0"
     fit-margin-bottom="0" />
  <metadata
     id="metadata5">
    <rdf:RDF>
      <cc:Work
         rdf:about="">
        <dc:format>image/svg+xml</dc:format>
        <dc:type
           rdf:resource="http://purl.org/dc/dcmitype/StillImage" />
        <dc:title></dc:title>
      </cc:Work>
    </rdf:RDF>
  </metadata>
  <g
     inkscape:label="Capa 1"
     inkscape:groupmode="layer"
     id="layer1"
     transform="translate(743.27122,312.23558)">
    <g
       id="g1306">
      <g
         transform="matrix(1.3573322,0.75429982,-0.65645937,1.2181928,-730.69752,-295.60865)"
         id="g828-9-3-9"
         style="fill:#538baa;fill-opacity:1">
        <path
           sodipodi:nodetypes="csssscc"
           id="path826-1-6-7"
           d="m 18.442,40.87 v 2.604 c 0,1.383 1.088,2.498 2.471,2.498 h 4.128 c 1.383,0 2.488,-1.115 2.488,-2.498 v -2.605 c -2.946731,-0.667077 -6.139324,-0.542713 -9.087,10e-4 z"
           inkscape:connector-curvature="0"
           style="fill:#538baa;fill-opacity:1" />
      </g>
      <g
         transform="matrix(1.5472798,0,0,1.388669,-745.14666,-280.47816)"
         id="g828-9-3"
         style="fill:#538baa;fill-opacity:1">
        <path
           sodipodi:nodetypes="ccssssccc"
           id="path826-1-6"
           d="m 13.564,38.892 c 1.498,0.873 3.112,1.545 4.878,1.978 v 2.604 c 0,1.383 1.088,2.498 2.471,2.498 h 4.128 c 1.383,0 2.488,-1.115 2.488,-2.498 v -2.605 c 1.767,-0.432 3.371,-1.104 4.869,-1.977 -5.067362,-1.184314 -10.275096,-1.910234 -18.834,0 z"
           inkscape:connector-curvature="0"
           style="fill:#538baa;fill-opacity:1" />
      </g>
      <g
         transform="matrix(1.5472798,0,0,1.388669,-708.26491,-280.35556)"
         id="g828-9-3-3"
         style="fill:#538baa;fill-opacity:1">
        <path
           sodipodi:nodetypes="ccssssccc"
           id="path826-1-6-6"
           d="m 13.564,38.892 c 1.498,0.873 3.112,1.545 4.878,1.978 v 2.604 c 0,1.383 1.088,2.498 2.471,2.498 h 4.128 c 1.383,0 2.488,-1.115 2.488,-2.498 v -2.605 c 1.767,-0.432 3.371,-1.104 4.869,-1.977 -5.067362,-1.184314 -10.275096,-1.910234 -18.834,0 z"
           inkscape:connector-curvature="0"
           style="fill:#538baa;fill-opacity:1" />
      </g>
      <g
         transform="matrix(1.5472798,0,0,1.388669,-689.44253,-279.873)"
         id="g828-9-3-2-1"
         style="fill:#538baa;fill-opacity:1">
        <path
           sodipodi:nodetypes="ccssssccc"
           id="path826-1-6-8-2"
           d="m 13.564,38.892 c 1.498,0.873 3.112,1.545 4.878,1.978 v 2.604 c 0,1.383 1.088,2.498 2.471,2.498 h 4.128 c 1.383,0 2.488,-1.115 2.488,-2.498 v -2.605 c 1.767,-0.432 3.371,-1.104 4.869,-1.977 -5.067362,-1.184314 -10.275096,-1.910234 -18.834,0 z"
           inkscape:connector-curvature="0"
           style="fill:#538baa;fill-opacity:1" />
      </g>
      <g
         transform="matrix(1.5472798,0,0,1.388669,-726.88137,-279.99563)"
         id="g828-9-3-2"
         style="fill:#538baa;fill-opacity:1">
        <path
           sodipodi:nodetypes="ccssssccc"
           id="path826-1-6-8"
           d="m 13.564,38.892 c 1.498,0.873 3.112,1.545 4.878,1.978 v 2.604 c 0,1.383 1.088,2.498 2.471,2.498 h 4.128 c 1.383,0 2.488,-1.115 2.488,-2.498 v -2.605 c 1.767,-0.432 3.371,-1.104 4.869,-1.977 -5.067362,-1.184314 -10.275096,-1.910234 -18.834,0 z"
           inkscape:connector-curvature="0"
           style="fill:#538baa;fill-opacity:1" />
      </g>
      <path
         sodipodi:nodetypes="ccccccccccccccc"
         inkscape:connector-curvature="0"
         id="path1035"
         d="m -714.0253,-224.73346 c 29.65127,-1.20652 43.08566,-1.38958 79.16814,0 11.06877,-1.6845 19.51781,-11.11411 20.02598,-20.45069 0.5428,-9.97277 -7.7282,-22.90051 -19.79833,-23.20251 -0.0603,-6.66886 -1.45188,-16.53623 -5.98686,-22.46942 -4.90715,-6.42006 -13.0892,-12.3457 -21.38257,-12.73356 -9.1176,-0.42644 -14.49933,2.58744 -21.08646,8.64487 -2.57707,2.36983 -7.01893,9.36892 -8.11854,13.72796 -5.18288,-4.7802 -8.80768,-4.68679 -12.24374,-4.51238 -5.10128,0.25896 -7.76744,2.59207 -10.69694,6.60341 -1.953,2.67422 -2.82479,8.30099 -0.79386,11.75871 -7.49339,2.05648 -10.34613,3.28946 -13.84849,7.3567 -3.93073,4.5647 -7.51734,10.34282 -6.78669,16.21998 0.82547,6.64017 4.53676,11.72502 9.98724,15.89933 2.68196,2.05401 8.17572,2.61187 11.56112,3.1576 z"
         style="fill:#ffc134;fill-opacity:1;stroke:#538baa;stroke-width:6.51587009;stroke-linecap:butt;stroke-linejoin:miter;stroke-miterlimit:4;stroke-dasharray:none;stroke-opacity:1" />
      <g
         transform="matrix(0.30685154,1.5400651,-1.3403028,0.27539636,-687.98451,-288.39236)"
         id="g828-9-3-9-9"
         style="fill:#538baa;fill-opacity:1">
        <path
           sodipodi:nodetypes="csssscc"
           id="path826-1-6-7-3"
           d="m 18.442,40.87 v 2.604 c 0,1.383 1.088,2.498 2.471,2.498 h 4.128 c 1.383,0 2.488,-1.115 2.488,-2.498 v -2.605 c -2.946731,-0.667077 -6.139324,-0.542713 -9.087,10e-4 z"
           inkscape:connector-curvature="0"
           style="fill:#538baa;fill-opacity:1" />
      </g>
      <g
         transform="matrix(-0.93320101,1.253323,-1.0907541,-0.83753907,-665.4951,-252.69953)"
         id="g828-9-3-9-1"
         style="fill:#538baa;fill-opacity:1">
        <path
           sodipodi:nodetypes="csssscc"
           id="path826-1-6-7-9"
           d="m 18.442,40.87 v 2.604 c 0,1.383 1.088,2.498 2.471,2.498 h 4.128 c 1.383,0 2.488,-1.115 2.488,-2.498 v -2.605 c -2.946731,-0.667077 -6.139324,-0.542713 -9.087,10e-4 z"
           inkscape:connector-curvature="0"
           style="fill:#538baa;fill-opacity:1" />
      </g>
      <g
         inkscape:transform-center-y="2.0720163"
         inkscape:transform-center-x="2.2678362"
         transform="matrix(-0.45027009,1.5032703,-1.3082806,-0.40411309,-651.97043,-294.4359)"
         id="g828-9-3-9-4"
         style="fill:#538baa;fill-opacity:1">
        <path
           sodipodi:nodetypes="csssscc"
           id="path826-1-6-7-7"
           d="m 18.442,40.87 v 2.604 c 0,1.383 1.088,2.498 2.471,2.498 h 4.128 c 1.383,0 2.488,-1.115 2.488,-2.498 v -2.605 c -2.946731,-0.667077 -6.139324,-0.542713 -9.087,10e-4 z"
           inkscape:connector-curvature="0"
           style="fill:#538baa;fill-opacity:1" />
      </g>
      <g
         inkscape:transform-center-y="-1.8088993"
         inkscape:transform-center-x="2.3539233"
         transform="matrix(-1.5460021,0.06384226,-0.05556132,-1.3875222,-665.77562,-230.39793)"
         id="g828-9-3-9-4-5"
         style="fill:#538baa;fill-opacity:1">
        <path
           sodipodi:nodetypes="csssscc"
           id="path826-1-6-7-7-0"
           d="m 18.442,40.87 v 2.604 c 0,1.383 1.088,2.498 2.471,2.498 h 4.128 c 1.383,0 2.488,-1.115 2.488,-2.498 v -2.605 c -2.946731,-0.667077 -6.139324,-0.542713 -9.087,10e-4 z"
           inkscape:connector-curvature="0"
           style="fill:#538baa;fill-opacity:1" />
      </g>
      <g
         inkscape:transform-center-y="1.1271214"
         inkscape:transform-center-x="2.4059608"
         transform="matrix(-1.0065297,1.1933712,-1.0385787,-0.90335079,-619.83623,-283.83827)"
         id="g828-9-3-9-4-3"
         style="fill:#538baa;fill-opacity:1">
        <path
           sodipodi:nodetypes="csssscc"
           id="path826-1-6-7-7-6"
           d="m 18.442,40.87 v 2.604 c 0,1.383 1.088,2.498 2.471,2.498 h 4.128 c 1.383,0 2.488,-1.115 2.488,-2.498 v -2.605 c -2.946731,-0.667077 -6.139324,-0.542713 -9.087,10e-4 z"
           inkscape:connector-curvature="0"
           style="fill:#538baa;fill-opacity:1" />
      </g>
      <g
         inkscape:transform-center-y="-1.2972746"
         inkscape:transform-center-x="2.4097728"
         transform="matrix(-1.5145618,0.32141597,-0.27972504,-1.3593048,-624.68862,-254.78535)"
         id="g828-9-3-9-4-1"
         style="fill:#538baa;fill-opacity:1">
        <path
           sodipodi:nodetypes="csssscc"
           id="path826-1-6-7-7-06"
           d="m 18.442,40.87 v 2.604 c 0,1.383 1.088,2.498 2.471,2.498 h 4.128 c 1.383,0 2.488,-1.115 2.488,-2.498 v -2.605 c -2.946731,-0.667077 -6.139324,-0.542713 -9.087,10e-4 z"
           inkscape:connector-curvature="0"
           style="fill:#538baa;fill-opacity:1" />
      </g>
      <g
         inkscape:transform-center-y="-2.3704088"
         inkscape:transform-center-x="1.7130431"
         transform="matrix(-1.3788447,-0.7129281,0.62045395,-1.2375,-646.37764,-235.12688)"
         id="g828-9-3-9-4-1-0"
         style="fill:#538baa;fill-opacity:1">
        <path
           sodipodi:nodetypes="csssscc"
           id="path826-1-6-7-7-06-6"
           d="m 18.442,40.87 v 2.604 c 0,1.383 1.088,2.498 2.471,2.498 h 4.128 c 1.383,0 2.488,-1.115 2.488,-2.498 v -2.605 c -2.946731,-0.667077 -6.139324,-0.542713 -9.087,10e-4 z"
           inkscape:connector-curvature="0"
           style="fill:#538baa;fill-opacity:1" />
      </g>
      <g
         inkscape:transform-center-y="-2.4883394"
         inkscape:transform-center-x="0.075101119"
         transform="matrix(-0.80775915,-1.3401616,1.1663288,-0.72495622,-668.26345,-229.82132)"
         id="g828-9-3-9-4-1-1"
         style="fill:#538baa;fill-opacity:1">
        <path
           sodipodi:nodetypes="csssscc"
           id="path826-1-6-7-7-06-5"
           d="m 18.442,40.87 v 2.604 c 0,1.383 1.088,2.498 2.471,2.498 h 4.128 c 1.383,0 2.488,-1.115 2.488,-2.498 v -2.605 c -2.946731,-0.667077 -6.139324,-0.542713 -9.087,10e-4 z"
           inkscape:connector-curvature="0"
           style="fill:#538baa;fill-opacity:1" />
      </g>
      <g
         inkscape:transform-center-y="-2.401152"
         inkscape:transform-center-x="-1.7297632"
         transform="matrix(-0.10415154,-1.5677101,1.3643618,-0.09347505,-687.35607,-234.24034)"
         id="g828-9-3-9-4-1-5"
         style="fill:#538baa;fill-opacity:1">
        <path
           sodipodi:nodetypes="csssscc"
           id="path826-1-6-7-7-06-4"
           d="m 18.442,40.87 v 2.604 c 0,1.383 1.088,2.498 2.471,2.498 h 4.128 c 1.383,0 2.488,-1.115 2.488,-2.498 v -2.605 c -2.946731,-0.667077 -6.139324,-0.542713 -9.087,10e-4 z"
           inkscape:connector-curvature="0"
           style="fill:#538baa;fill-opacity:1" />
      </g>
      <g
         inkscape:transform-center-y="-2.4882806"
         inkscape:transform-center-x="0.082274516"
         transform="matrix(-0.81034462,-1.3385511,1.1649272,-0.72727663,-649.43847,-199.61444)"
         id="g828-9-3-9-4-1-7"
         style="fill:#538baa;fill-opacity:1">
        <path
           sodipodi:nodetypes="csssscc"
           id="path826-1-6-7-7-06-65"
           d="m 18.442,40.87 v 2.604 c 0,1.383 1.088,2.498 2.471,2.498 h 4.128 c 1.383,0 2.488,-1.115 2.488,-2.498 v -2.605 c -2.946731,-0.667077 -6.139324,-0.542713 -9.087,10e-4 z"
           inkscape:connector-curvature="0"
           style="fill:#538baa;fill-opacity:1" />
      </g>
      <g
         inkscape:transform-center-y="-2.2424421"
         inkscape:transform-center-x="-2.2160146"
         transform="matrix(0.25919851,-1.54907,1.3481395,0.2326282,-675.99514,-217.98053)"
         id="g828-9-3-9-4-1-6"
         style="fill:#538baa;fill-opacity:1">
        <path
           sodipodi:nodetypes="csssscc"
           id="path826-1-6-7-7-06-9"
           d="m 18.442,40.87 v 2.604 c 0,1.383 1.088,2.498 2.471,2.498 h 4.128 c 1.383,0 2.488,-1.115 2.488,-2.498 v -2.605 c -2.946731,-0.667077 -6.139324,-0.542713 -9.087,10e-4 z"
           inkscape:connector-curvature="0"
           style="fill:#538baa;fill-opacity:1" />
      </g>
      <g
         inkscape:transform-center-y="-0.3703763"
         inkscape:transform-center-x="-2.4455752"
         transform="matrix(1.2500777,-0.92594026,0.80583628,1.1219328,-683.46365,-255.70587)"
         id="g828-9-3-9-4-1-3"
         style="fill:#538baa;fill-opacity:1">
        <path
           sodipodi:nodetypes="csssscc"
           id="path826-1-6-7-7-06-7"
           d="m 18.442,40.87 v 2.604 c 0,1.383 1.088,2.498 2.471,2.498 h 4.128 c 1.383,0 2.488,-1.115 2.488,-2.498 v -2.605 c -2.946731,-0.667077 -6.139324,-0.542713 -9.087,10e-4 z"
           inkscape:connector-curvature="0"
           style="fill:#538baa;fill-opacity:1" />
      </g>
      <g
         inkscape:transform-center-y="1.6383215"
         inkscape:transform-center-x="-2.3812017"
         transform="matrix(1.5374017,-0.17726477,0.15427172,1.3798035,-678.33155,-276.74278)"
         id="g828-9-3-9-4-1-4"
         style="fill:#538baa;fill-opacity:1">
        <path
           sodipodi:nodetypes="csssscc"
           id="path826-1-6-7-7-06-52"
           d="m 18.442,40.87 v 2.604 c 0,1.383 1.088,2.498 2.471,2.498 h 4.128 c 1.383,0 2.488,-1.115 2.488,-2.498 v -2.605 c -2.946731,-0.667077 -6.139324,-0.542713 -9.087,10e-4 z"
           inkscape:connector-curvature="0"
           style="fill:#538baa;fill-opacity:1" />
      </g>
      <path
         id="path1342-5"
         d="m -694.78589,-206.6053 20.75988,21.52246 m 0,0 20.75987,-21.52246 m -20.75987,21.52246 v -43.04492"
         inkscape:connector-curvature="0"
         style="fill:#ffc134;fill-opacity:1;stroke:#ffc134;stroke-width:17.6147747;stroke-linecap:round;stroke-linejoin:round;stroke-opacity:1" />
      <g
         style="fill:#538baa;fill-opacity:1;stroke:none;stroke-opacity:1"
         id="g1338"
         transform="matrix(1.7277662,0,0,0.98143191,-723.10342,-285.39273)">
        <path
           id="path1327"
           d="m 1.6437,32.5493 h 6.689 c 0.6164,0 1.1871,-0.3653 1.3469,-1.0273 l 0.6621,-2.945 3.2189,14.9075 c 0.2968,1.3698 2.534,1.3698 2.7395,-0.0228 l 2.7851,-18.3091 3.2646,28.2398 c 0.2055,1.6894 2.6254,1.6665 2.7624,0 l 3.0134,-33.6732 2.9907,33.6504 c 0.1598,1.7122 2.5568,1.7122 2.7623,0 l 3.2646,-28.217 2.808,18.3319 c 0.2054,1.3926 2.4199,1.3926 2.7397,0 l 3.1732,-14.7249 0.6845,2.7624 c 0.2057,0.7533 0.7308,1.0273 1.347,1.0273 h 6.4839 c 0.9131,0 1.6205,-0.7077 1.6205,-1.5981 0,-0.8903 -0.7074,-1.6208 -1.6205,-1.6208 h -5.4791 l -1.8263,-7.0771 c -0.4109,-1.5296 -2.3971,-1.5296 -2.7169,0 L 41.5264,35.5856 38.3075,14.5598 C 38.0564,12.8933 35.7506,12.939 35.5451,14.5827 L 32.6687,39.5351 29.5182,3.9214 c -0.137,-1.7122 -2.6482,-1.7122 -2.808,0 L 23.5598,39.5351 20.6833,14.5827 C 20.5007,12.8933 18.1949,12.8933 17.921,14.5598 L 14.702,35.5856 11.894,22.2533 c -0.3196,-1.4154 -2.3514,-1.4154 -2.7395,0 L 7.3282,29.3304 H 1.6437 C 0.7305,29.3304 0,30.0609 0,30.9512 c 0,0.8904 0.7305,1.5981 1.6437,1.5981 z"
           inkscape:connector-curvature="0"
           style="fill:#538baa;fill-opacity:1;stroke:none;stroke-opacity:1" />
      </g>
      <text
         xml:space="preserve"
         style="font-style:normal;font-variant:normal;font-weight:normal;font-stretch:normal;font-size:144.38241577px;line-height:1.25;font-family:Ubuntu;-inkscape-font-specification:Ubuntu;letter-spacing:0px;word-spacing:0px;fill:#538baa;fill-opacity:1;stroke-width:7.73477316"
         x="-541.96979"
         y="-239.86673"
         id="text1426"
         transform="scale(1.0933786,0.91459632)"><tspan
           sodipodi:role="line"
           id="tspan1424"
           x="-541.96979"
           y="-239.86673"
           style="font-style:normal;font-variant:normal;font-weight:bold;font-stretch:normal;font-family:Ubuntu;-inkscape-font-specification:'Ubuntu Bold';letter-spacing:4.70696878px;fill:#538baa;fill-opacity:1;stroke-width:7.73477316">PHMD</tspan></text>
    </g>
  </g>
</svg>
